<?xml version="1.0" standalone="no"?>
<!DOCTYPE svg PUBLIC "-//W3C//DTD SVG 20010904//EN"
 "http://www.w3.org/TR/2001/REC-SVG-20010904/DTD/svg10.dtd">
<svg version="1.0" xmlns="http://www.w3.org/2000/svg"
 width="1280.000000pt" height="1280.000000pt" viewBox="0 0 1280.000000 1280.000000"
 preserveAspectRatio="xMidYMid meet">
<metadata>
Created by potrace 1.14, written by Peter Selinger 2001-2017
</metadata>
<g transform="translate(0.000000,1280.000000) scale(0.100000,-0.100000)"
fill="#000000" stroke="none">
<path d="M1147 7714 c-170 -26 -321 -78 -471 -162 -44 -25 -86 -51 -95 -58 -9
-7 -50 -39 -91 -72 -82 -65 -130 -114 -202 -207 -27 -33 -51 -64 -56 -70 -4
-5 -26 -41 -48 -80 -132 -232 -186 -445 -179 -705 2 -74 6 -148 10 -165 42
-220 105 -380 218 -550 68 -102 228 -266 327 -336 172 -122 397 -212 587 -237
76 -9 335 -9 398 1 176 28 286 73 577 240 146 84 576 346 621 379 9 7 71 47
137 88 66 41 120 79 120 83 0 5 -15 28 -32 52 -18 23 -41 54 -50 66 -151 210
-186 247 -203 220 -3 -5 -29 -23 -58 -39 -28 -16 -104 -59 -167 -97 -63 -37
-130 -76 -148 -87 -18 -10 -93 -53 -165 -95 -73 -42 -148 -85 -167 -96 -19
-10 -53 -30 -75 -43 -298 -173 -410 -213 -595 -212 -374 0 -701 235 -820 589
-24 69 -27 81 -36 149 -68 463 255 901 721 977 47 8 215 8 265 0 220 -34 438
-166 566 -341 l19 -27 189 129 c105 70 191 133 193 139 7 20 -160 208 -255
285 -54 44 -176 121 -248 156 -129 64 -223 94 -404 128 -69 13 -295 12 -383
-2z"/>
<path d="M2604 7692 c-19 -3 -6 -25 105 -181 69 -97 137 -194 151 -214 l25
-37 100 0 c55 -1 242 -1 416 -1 343 1 386 -4 481 -56 182 -99 268 -340 191
-536 -53 -134 -169 -235 -304 -266 -25 -6 -184 -11 -362 -11 -201 0 -317 -4
-315 -10 2 -5 75 -111 163 -235 88 -125 167 -237 175 -249 15 -24 50 -74 325
-461 82 -115 172 -242 199 -282 l51 -72 263 -1 c144 0 262 3 262 6 0 4 -23 39
-51 78 -47 66 -256 363 -279 396 -44 64 -234 333 -259 367 -17 23 -31 46 -31
50 0 4 37 23 83 40 120 48 243 132 321 222 12 13 26 29 31 35 64 73 134 213
166 337 32 122 32 301 0 424 -80 304 -309 540 -607 625 -38 11 -95 23 -128 26
-59 7 -1132 12 -1172 6z"/>
<path d="M7099 7425 c-3 -2 -20 -7 -39 -10 -212 -36 -395 -141 -513 -297 -44
-57 -95 -171 -110 -246 -14 -65 -15 -186 -3 -237 15 -66 22 -87 51 -150 54
-117 151 -210 291 -279 97 -47 200 -79 419 -130 347 -80 430 -123 475 -243 26
-69 25 -126 -1 -180 -109 -225 -573 -248 -975 -48 -85 43 -85 43 -99 21 -51
-81 -185 -298 -185 -302 0 -2 39 -24 88 -48 158 -79 379 -153 509 -171 18 -2
48 -7 66 -10 64 -12 246 -12 334 0 145 20 252 59 363 130 156 101 262 249 295
414 8 36 9 175 2 201 -2 8 -7 33 -11 55 -13 68 -91 216 -143 271 -62 66 -165
135 -262 175 -70 29 -242 83 -298 94 -239 43 -422 103 -476 157 -51 50 -62 79
-62 159 0 81 16 118 80 182 38 37 136 83 215 101 96 23 258 14 378 -20 54 -15
163 -62 172 -75 3 -3 14 -11 25 -17 17 -9 27 -4 66 31 25 23 83 76 129 117 45
41 89 79 97 84 12 7 9 13 -16 37 -106 96 -273 175 -456 214 -73 16 -395 32
-406 20z"/>
<path d="M11755 7410 c-295 -58 -533 -204 -725 -446 -89 -111 -185 -324 -216
-478 -37 -185 -19 -436 44 -616 129 -367 444 -655 820 -750 272 -68 557 -38
808 85 105 51 241 143 292 197 l22 24 -141 142 -141 141 -27 -25 c-42 -41
-134 -101 -197 -130 -111 -51 -199 -69 -334 -68 -212 2 -386 75 -543 229 -109
107 -194 274 -213 416 -35 263 36 484 214 667 101 104 229 176 382 213 94 23
291 20 360 -5 25 -8 50 -16 57 -16 40 0 224 -109 276 -162 10 -10 21 -18 25
-18 4 0 70 62 146 139 l138 138 -42 39 c-155 144 -383 253 -600 289 -115 18
-295 16 -405 -5z"/>
<path d="M8110 7190 l0 -200 343 -2 342 -3 0 -922 c0 -507 4 -925 9 -930 4 -4
95 -8 201 -9 l194 -1 0 886 c0 487 0 907 1 934 l0 47 344 0 344 0 0 200 0 200
-889 0 -889 0 0 -200z"/>
<path d="M10142 6257 l0 -1133 196 1 197 0 2 1133 2 1132 -198 0 -199 0 0
-1133z"/>
<path d="M5329 6789 c-172 -35 -327 -121 -442 -244 -78 -83 -169 -242 -193
-335 -2 -8 -8 -33 -14 -55 -35 -141 -29 -334 16 -472 119 -364 416 -590 788
-597 129 -3 287 15 394 44 77 21 232 91 251 113 6 8 -1 33 -24 77 -19 36 -55
107 -81 158 -26 50 -53 92 -59 92 -6 0 -39 -9 -73 -20 -168 -55 -391 -80 -495
-56 -142 34 -257 130 -317 264 l-19 42 42 1 c23 0 291 0 595 0 409 1 552 4
553 12 3 33 -1 236 -5 276 -37 309 -228 564 -500 666 -36 13 -80 27 -98 30
-18 3 -46 8 -63 12 -61 12 -175 9 -256 -8z m245 -391 c22 -6 64 -26 92 -44 50
-31 124 -108 124 -129 0 -6 5 -16 12 -23 12 -12 38 -79 38 -99 0 -10 -84 -13
-385 -13 -284 0 -385 3 -385 12 0 26 53 117 93 159 62 66 111 99 186 125 74
26 160 31 225 12z"/>
</g>
</svg>
